<svg width="24" height="24" viewBox="0 0 24 24" fill="none" xmlns="http://www.w3.org/2000/svg">
<path d="M12.0001 1.99988C17.5101 1.99988 22.0001 6.47988 22.0001 11.9999C22.0001 17.5099 17.5101 21.9999 12.0001 21.9999C6.48011 21.9999 2.00011 17.5099 2.00011 11.9999C2.00011 6.47988 6.48011 1.99988 12.0001 1.99988ZM16.0001 10.0194C15.7001 9.72966 15.2305 9.7303 14.9405 10.0302L12.0001 12.9803L9.05968 10.0302C8.76975 9.73031 8.29011 9.72967 8.00011 10.0194C7.70011 10.3194 7.70011 10.79 8.00011 11.08L11.4698 14.5702C11.6098 14.7102 11.8001 14.7899 12.0001 14.7899C12.2001 14.7899 12.3904 14.7102 12.5304 14.5702L16.0001 11.08C16.1501 10.94 16.2198 10.7494 16.2198 10.5594C16.2197 10.3596 16.15 10.1693 16.0001 10.0194Z" fill="black"/>
</svg>
