<svg width="24" height="24" viewBox="0 0 24 24" fill="none" xmlns="http://www.w3.org/2000/svg">
<path d="M7.42676 18.9082C8.25589 18.9085 8.93552 19.6019 8.93555 20.459C8.93555 21.3059 8.25591 21.9998 7.42676 22C6.58741 22 5.90723 21.306 5.90723 20.459C5.90725 19.6018 6.58743 18.9082 7.42676 18.9082ZM18.668 18.9082C19.4971 18.9084 20.1767 19.6019 20.1768 20.459C20.1768 21.3059 19.4971 21.9998 18.668 22C17.8286 22 17.1484 21.306 17.1484 20.459C17.1485 19.6018 17.8286 18.9082 18.668 18.9082ZM2.01074 2.64062C2.08068 2.22329 2.47026 1.94664 2.87988 2.00879L5.26367 2.375C5.60318 2.43742 5.85285 2.72251 5.88281 3.06934L6.07227 5.35547C6.10242 5.68267 6.36224 5.9275 6.68164 5.92773H20.1768C20.7862 5.92778 21.1863 6.14194 21.5859 6.61133C21.9854 7.0807 22.0547 7.75412 21.9648 8.36523L21.0156 15.0596C20.8358 16.3463 19.7571 17.2947 18.4883 17.2949H7.58594C6.25726 17.2947 5.15885 16.255 5.04883 14.9082L4.12891 3.7832L2.62012 3.51855C2.22052 3.4471 1.94092 3.04875 2.01074 2.64062ZM14.1211 9.70215C13.7015 9.70226 13.3721 10.0392 13.3721 10.4678C13.3721 10.8861 13.7015 11.2333 14.1211 11.2334H16.8887C17.3083 11.2334 17.6387 10.8862 17.6387 10.4678C17.6387 10.0392 17.3083 9.70215 16.8887 9.70215H14.1211Z" fill="black"/>
</svg>
