<svg width="24" height="24" viewBox="0 0 24 24" fill="none" xmlns="http://www.w3.org/2000/svg">
<path d="M18.5615 14.0195C20.4613 14.0197 22 15.5329 22 17.3994C21.9999 19.2648 20.4613 20.7771 18.5615 20.7773C16.6627 20.7773 15.1222 19.2649 15.1221 17.3994C15.1221 15.5327 16.6626 14.0195 18.5615 14.0195ZM10.083 15.958C10.9152 15.958 11.5908 16.6218 11.5908 17.4395C11.5907 18.2559 10.9152 18.9209 10.083 18.9209H3.50781C2.67565 18.9209 2.0001 18.2559 2 17.4395C2 16.6218 2.67559 15.958 3.50781 15.958H10.083ZM5.43848 3C7.33847 3 8.87793 4.51333 8.87793 6.37891C8.87774 8.24542 7.33835 9.75781 5.43848 9.75781C3.5399 9.7576 2.00019 8.24529 2 6.37891C2 4.51346 3.53978 3.00021 5.43848 3ZM20.4932 4.89844C21.3243 4.89844 22 5.56238 22 6.37891C21.9998 7.19637 21.3242 7.86035 20.4932 7.86035H13.918C13.0859 7.86035 12.4103 7.19637 12.4102 6.37891C12.4102 5.56238 13.0858 4.89844 13.918 4.89844H20.4932Z" fill="black"/>
</svg>
