<svg width="24" height="24" viewBox="0 0 24 24" fill="none" xmlns="http://www.w3.org/2000/svg">
<path d="M14.1348 15.8389C14.4374 15.84 14.6826 16.0936 14.6826 16.4043V19.1357C14.6825 19.4473 14.5052 19.7289 14.2295 19.8594L9.82227 21.9287C9.71954 21.9763 9.61083 21.9999 9.50195 22C9.35695 22 9.2115 21.9576 9.08496 21.874C8.8636 21.7277 8.72949 21.4746 8.72949 21.2041V16.3896C8.72949 16.0768 8.97654 15.8232 9.28027 15.8242L14.1348 15.8389ZM19.8721 2C21.0478 2.00014 22 2.98127 22 4.19238V5.72363C22 6.3112 21.77 6.8756 21.3623 7.28711L14.8574 13.8672C14.7452 13.9816 14.593 14.045 14.4355 14.0439L8.98926 14.0273C8.82357 14.0273 8.66598 13.956 8.55273 13.832L2.57422 7.25781C2.20462 6.85163 2.00003 6.31458 2 5.75781V4.19336C2 2.98225 2.95224 2.00014 4.12793 2H19.8721Z" fill="black"/>
</svg>
