<svg width="24" height="24" viewBox="0 0 24 24" fill="none" xmlns="http://www.w3.org/2000/svg">
<path d="M16.3529 2.00037C19.7298 2.00037 21.9993 4.36223 21.9994 7.88806V16.1019C21.9994 16.2529 21.9722 16.3885 21.9642 16.5345C21.9592 16.6195 21.9605 16.7045 21.9535 16.7894C21.9495 16.8274 21.938 16.8628 21.934 16.9008C21.901 17.2145 21.8506 17.5143 21.7797 17.8051C21.7617 17.8831 21.7401 17.9585 21.7191 18.0345C21.6391 18.3164 21.545 18.5852 21.432 18.8422C21.399 18.9141 21.3634 18.9832 21.3295 19.0541C21.2075 19.2991 21.0752 19.5343 20.9222 19.7523C20.8752 19.8193 20.8238 19.8797 20.7748 19.9447C20.6158 20.1507 20.4491 20.3477 20.2611 20.5267C20.2002 20.5846 20.1316 20.6349 20.0677 20.6898C19.8748 20.8558 19.6773 21.0148 19.4603 21.1508C19.3824 21.1997 19.2961 21.2357 19.2162 21.2797C18.9953 21.4016 18.7725 21.5207 18.5297 21.6127C18.4297 21.6507 18.3182 21.6705 18.2142 21.7035C17.9754 21.7774 17.7396 21.8548 17.4828 21.8988C17.2888 21.9328 17.0774 21.9365 16.8734 21.9535C16.6994 21.9665 16.5339 22.0004 16.3529 22.0004H7.63708C7.2612 22.0003 6.90196 21.9626 6.55505 21.9056C6.54216 21.9037 6.52986 21.9018 6.51794 21.8998C5.16516 21.6667 4.04217 21.0135 3.25525 20.0287C3.2464 20.0286 3.24659 20.0181 3.23767 20.0092C2.44667 19.0132 1.99939 17.6739 1.99939 16.1019V7.88806C1.99952 4.36234 4.27035 2.00051 7.63708 2.00037H16.3529ZM7.63708 3.3949C5.06035 3.39504 3.396 5.16234 3.39587 7.88806V16.1019C3.39587 16.8668 3.5377 17.55 3.78064 18.141C3.82143 18.092 5.7293 15.7658 5.7572 15.7347C6.44919 14.9448 7.74853 13.766 9.45349 14.4789C9.86334 14.6488 10.2232 14.8881 10.5531 15.098C11.1261 15.481 11.4638 15.6612 11.8138 15.6312C11.9585 15.6112 12.0943 15.5684 12.223 15.4886C12.781 15.1446 14.3585 12.8441 14.4535 12.7191C15.5435 11.2993 17.2235 10.9193 18.6234 11.7592C18.8114 11.8712 20.1589 12.8128 20.6049 13.1908V7.88806C20.6047 5.16223 18.9388 3.3949 16.3529 3.3949H7.63708ZM8.47888 6.00037C9.17647 6.00042 9.80863 6.2931 10.2611 6.76111C10.7155 7.21275 11.0004 7.83565 11.0004 8.51501C11.0003 9.86979 9.86647 11.0001 8.50525 11.0004C7.30854 11.0004 6.28764 10.1256 6.05896 8.99353C6.02118 8.82371 6.00037 8.64857 6.00037 8.46814C6.00062 7.10375 7.10888 6.00037 8.47888 6.00037Z" fill="black"/>
</svg>
