<svg width="24" height="24" viewBox="0 0 24 24" fill="none" xmlns="http://www.w3.org/2000/svg">
<path d="M11.9844 2C15.0531 2 17.5225 4.41527 17.5225 7.39648V8.92969C19.2448 9.4673 20.5 11.0264 20.5 12.8887V17.8252C20.5 20.1306 18.5888 21.9999 16.2324 22H7.76855C5.41122 21.9999 3.5 20.1306 3.5 17.8252V12.8887C3.5 11.0264 4.7562 9.4673 6.47754 8.92969V7.39648C6.4877 4.41539 8.95646 2.0002 11.9844 2ZM11.9951 13.3848C11.5074 13.3848 11.1113 13.772 11.1113 14.249V16.4551C11.1114 16.9419 11.5074 17.3291 11.9951 17.3291C12.4929 17.329 12.8886 16.9419 12.8887 16.4551V14.249C12.8887 13.7721 12.4929 13.3849 11.9951 13.3848ZM12.0049 3.73926C9.94227 3.73936 8.26611 5.36876 8.25586 7.37598V8.71387H15.7441V7.39648C15.7441 5.37919 14.0676 3.73926 12.0049 3.73926Z" fill="black"/>
</svg>
