<svg width="24" height="24" viewBox="0 0 24 24" fill="none" xmlns="http://www.w3.org/2000/svg">
<path d="M13.2529 2C13.5002 2.00026 13.708 2.21013 13.708 2.45996V5.67969C13.708 7.50962 15.2029 9.00942 17.0146 9.01953C17.7571 9.01953 18.3611 9.03027 18.8066 9.03027C19.1136 9.03027 19.6291 9.01953 20.0449 9.01953C20.3021 9.01972 20.4999 9.21997 20.5 9.46973V17.5098C20.5 19.9896 18.5101 21.9998 16.0449 22H8.17285C5.5889 21.9998 3.50002 19.8899 3.5 17.29V6.50977C3.50013 4.02987 5.50055 2 7.96582 2H13.2529ZM14.0547 10.7197C13.7676 10.4198 13.292 10.4198 13.0049 10.7197L11.7969 11.9404L10.5889 10.7197C10.3018 10.4201 9.83687 10.4201 9.5498 10.7197C9.2627 11.0097 9.26276 11.4795 9.5498 11.7695L10.7578 12.9902L9.5498 14.21C9.26268 14.5 9.26268 14.9698 9.5498 15.2598C9.68842 15.4097 9.87634 15.4805 10.0645 15.4805C10.2525 15.4804 10.4503 15.4097 10.5889 15.2598L11.7969 14.04L13.0049 15.2598C13.1533 15.4097 13.3413 15.4804 13.5293 15.4805C13.7174 15.4805 13.9062 15.4098 14.0547 15.2598C14.3416 14.9698 14.3416 14.4999 14.0547 14.21L12.8467 12.9902L14.0547 11.7695C14.3415 11.4795 14.3417 11.0096 14.0547 10.7197ZM15.1465 2.90625C15.1465 2.47526 15.6639 2.26131 15.959 2.57227C17.0302 3.6962 18.9007 5.66075 19.9463 6.75879C20.2344 7.06179 20.0233 7.56541 19.6055 7.56641C18.7918 7.5694 17.8336 7.56657 17.1436 7.55957C16.0485 7.55957 15.1465 6.64799 15.1465 5.54199V2.90625Z" fill="black"/>
</svg>
