<svg width="24" height="24" viewBox="0 0 24 24" fill="none" xmlns="http://www.w3.org/2000/svg">
<path d="M16.3347 1.99915C19.7227 1.99915 21.9997 4.37714 21.9997 7.91614V16.0831C21.9997 19.6221 19.7227 21.9991 16.3337 21.9991H7.66571C4.27671 21.9991 1.99969 19.6221 1.99969 16.0831V7.91614C1.9997 4.37714 4.27671 1.99915 7.66571 1.99915H16.3347ZM8.84052 9.39856C7.4066 9.39866 6.23993 10.5652 6.23993 11.9991C6.23993 13.4341 7.4066 14.6006 8.84052 14.6007C10.0125 14.6007 10.995 13.8171 11.319 12.7491H13.4304V13.8507C13.4304 14.2646 13.7665 14.6005 14.1804 14.6007C14.5944 14.6007 14.9304 14.2647 14.9304 13.8507V12.7491H16.2604V13.8507C16.2604 14.2646 16.5966 14.6006 17.0104 14.6007C17.4244 14.6007 17.7604 14.2647 17.7604 13.8507V11.9991C17.7604 11.5851 17.4244 11.2491 17.0104 11.2491H11.319C10.995 10.1821 10.0125 9.39856 8.84052 9.39856ZM8.84052 10.8976C9.44752 10.8976 9.94305 11.3921 9.94305 12.0001C9.94301 12.6071 9.44749 13.1007 8.84052 13.1007C8.23367 13.1006 7.73899 12.607 7.73895 12.0001C7.73895 11.3922 8.23364 10.8977 8.84052 10.8976Z" fill="black"/>
</svg>
