<svg width="24" height="24" viewBox="0 0 24 24" fill="none" xmlns="http://www.w3.org/2000/svg">
<path d="M12 4C14.0682 4 16.0291 4.71753 17.7363 6.0459C19.4436 7.36467 20.8975 9.29449 21.9414 11.709C22.0195 11.8932 22.0195 12.1067 21.9414 12.2812C19.8536 17.1103 16.1366 20 12 20H11.9902C7.86342 20 4.1464 17.1103 2.05859 12.2812C1.98054 12.1067 1.98054 11.8932 2.05859 11.709C4.14641 6.87996 7.86344 4 11.9902 4H12ZM12 8.12109C9.8439 8.12109 8.09766 9.85697 8.09766 12C8.09766 14.1333 9.8439 15.8691 12 15.8691C14.1463 15.8691 15.8926 14.1333 15.8926 12C15.8926 9.85697 14.1463 8.12109 12 8.12109ZM12.001 9.57324C13.3376 9.57324 14.4307 10.6599 14.4307 11.998C14.4306 13.3264 13.3375 14.4121 12.001 14.4121C10.6548 14.412 9.5626 13.3264 9.5625 11.998C9.5625 11.8332 9.58206 11.6776 9.61133 11.5225H9.66016C10.7429 11.5222 11.6211 10.6691 11.6602 9.60254C11.7673 9.58321 11.8841 9.57325 12.001 9.57324Z" fill="black"/>
</svg>
