<svg width="24" height="24" viewBox="0 0 24 24" fill="none" xmlns="http://www.w3.org/2000/svg">
<path d="M17.2998 12.8291C18.512 12.8291 19.6099 12.8981 20.2852 13.0264C20.2966 13.0266 20.9126 13.1535 21.1191 13.2354C21.4164 13.3636 21.6688 13.596 21.8291 13.8857C21.9436 14.1172 22 14.362 22 14.6172C21.9894 14.8832 21.8171 15.3829 21.7363 15.5801C21.2342 16.8794 19.5864 19.3628 18.5811 20.3154C18.4208 20.4769 18.2263 20.6519 18.1807 20.6982C17.9279 20.8953 17.6201 21 17.2891 21C16.9908 20.9999 16.6929 20.9071 16.4531 20.7207C16.2869 20.6017 16.0195 20.3262 16.0195 20.3262C14.9779 19.3521 13.4114 16.9257 12.9082 15.6953C12.89 15.6782 12.5996 14.9611 12.5879 14.6172V14.5703C12.588 14.0361 12.8855 13.5376 13.3662 13.2822C13.627 13.1446 14.3806 13.0169 14.4062 13.0029C15.092 12.8984 16.1448 12.8291 17.2998 12.8291ZM6.70508 12.8906C7.22104 12.8906 7.63941 13.3143 7.63965 13.8379L7.89551 18.417C7.89551 19.0845 7.3628 19.625 6.70508 19.625C6.04756 19.6248 5.51367 19.0843 5.51367 18.417L5.77148 13.8379C5.77172 13.3145 6.18932 12.8909 6.70508 12.8906ZM6.71191 3C7.00795 3.00004 7.30486 3.09307 7.5459 3.27832C7.71208 3.39828 7.98047 3.67383 7.98047 3.67383C9.02089 4.64911 10.5876 7.07429 11.0908 8.30469C11.1014 8.30469 11.4003 9.03567 11.4121 9.38379V9.43066C11.412 9.96376 11.1134 10.4624 10.6338 10.7178C10.3705 10.8579 9.60448 10.9852 9.59277 10.9971C8.90699 11.1016 7.85507 11.1709 6.7002 11.1709C5.48796 11.1709 4.39015 11.1019 3.71484 10.9736C3.70314 10.9736 3.08586 10.8466 2.87988 10.7646C2.58263 10.6376 2.33123 10.4041 2.1709 10.1143C2.05628 9.88271 2 9.63788 2 9.38379C2.01065 9.11657 2.18213 8.61813 2.26172 8.4209C2.76496 7.12033 4.41246 4.63692 5.41895 3.68555C5.57898 3.52314 5.77229 3.34844 5.81836 3.30176C6.06998 3.10459 6.37954 3 6.71191 3ZM17.2939 4.375C17.9517 4.375 18.4844 4.91549 18.4844 5.58301L18.2285 10.1621C18.2283 10.6858 17.81 11.1094 17.2939 11.1094C16.7783 11.109 16.3605 10.6855 16.3604 10.1621L16.1025 5.58301C16.1025 4.91574 16.6366 4.37541 17.2939 4.375Z" fill="black"/>
</svg>
