<svg width="24" height="24" viewBox="0 0 24 24" fill="none" xmlns="http://www.w3.org/2000/svg">
<path d="M19.5312 9.82617C20.066 9.82617 20.5 10.2542 20.5 10.7832C20.4998 15.0868 17.2 18.6408 12.9688 19.1182V21.043C12.9688 21.571 12.5347 22 12 22C11.4645 21.9997 11.0322 21.5709 11.0322 21.043V19.1182C6.80003 18.6408 3.5002 15.0868 3.5 10.7832C3.5 10.2542 3.93402 9.82617 4.46875 9.82617C5.00347 9.82619 5.4375 10.2542 5.4375 10.7832C5.43772 14.3558 8.38123 17.2624 12 17.2627C15.618 17.2627 18.5623 14.356 18.5625 10.7832C18.5625 10.2542 18.9965 9.82619 19.5312 9.82617ZM12.1748 2C14.1693 2.00002 15.8498 3.32392 16.3643 5.13086C16.435 5.37862 16.2479 5.625 15.9883 5.625H14.8564C14.5145 5.625 14.2363 5.89865 14.2363 6.23633V6.2373C14.2366 6.57572 14.5147 6.84863 14.8564 6.84863H15.9004C16.2461 6.84863 16.5272 7.12539 16.5273 7.4668C16.5273 7.80831 16.2462 8.08496 15.9004 8.08496H14.8564C14.5145 8.08496 14.2363 8.3596 14.2363 8.69824C14.2364 9.03589 14.5145 9.31055 14.8564 9.31055H15.9004C16.2462 9.31055 16.5273 9.58722 16.5273 9.92969C16.5271 10.2701 16.2461 10.5459 15.9004 10.5459H14.8564C14.5146 10.5459 14.2365 10.8207 14.2363 11.1592C14.2363 11.4969 14.5145 11.7705 14.8564 11.7705H15.9336C16.1989 11.7706 16.389 12.0277 16.3057 12.2764C15.7311 13.9847 14.0995 15.2168 12.1748 15.2168H11.8252C9.42181 15.2168 7.47363 13.2923 7.47363 10.9199V6.29688C7.47375 3.92363 9.42188 2 11.8252 2H12.1748Z" fill="black"/>
</svg>
