<svg width="24" height="24" viewBox="0 0 24 24" fill="none" xmlns="http://www.w3.org/2000/svg">
<path fill-rule="evenodd" clip-rule="evenodd" d="M11.7512 13.4502C11.3372 13.4502 11.0012 13.1142 11.0012 12.7002V3.75018C11.0012 3.33618 11.3372 3.00018 11.7512 3.00018C12.1652 3.00018 12.5012 3.33618 12.5012 3.75018V12.7002C12.5012 13.1142 12.1652 13.4502 11.7512 13.4502Z" fill="black"/>
<mask id="mask0_19_987" style="mask-type:luminance" maskUnits="userSpaceOnUse" x="6" y="11" width="12" height="11">
<path fill-rule="evenodd" clip-rule="evenodd" d="M6.00005 11.9502H17.502V21.3867H6.00005V11.9502Z" fill="white"/>
</mask>
<g mask="url(#mask0_19_987)">
<path fill-rule="evenodd" clip-rule="evenodd" d="M8.1096 13.4502L11.7516 19.2292L15.3926 13.4502H8.1096ZM11.7516 21.3872C11.4936 21.3872 11.2546 21.2552 11.1166 21.0362L6.1156 13.0992C5.9696 12.8692 5.9616 12.5772 6.0936 12.3382C6.2256 12.0982 6.4766 11.9502 6.7506 11.9502H16.7526C17.0256 11.9502 17.2766 12.0982 17.4086 12.3382C17.5416 12.5772 17.5326 12.8692 17.3866 13.0992L12.3856 21.0362C12.2486 21.2552 12.0086 21.3872 11.7516 21.3872Z" fill="black"/>
</g>
</svg>
