<svg width="24" height="24" viewBox="0 0 24 24" fill="none" xmlns="http://www.w3.org/2000/svg">
<path fill-rule="evenodd" clip-rule="evenodd" d="M8.68182 3.35443C9.87082 2.88165 14.1294 2.88157 15.3176 3.35443C15.966 3.61252 16.4036 4.10074 16.8058 4.83099L17.258 5.69818C17.2684 5.71536 17.2778 5.73108 17.2863 5.74408L17.3244 5.79584C17.5303 6.02019 17.8751 6.156 18.1027 6.15619C20.2547 6.15619 22.0002 7.90127 22.0002 10.0527V15.8476C22.0001 18.5916 19.7745 20.8172 17.0305 20.8173H6.96991C4.22519 20.8172 2.00027 18.592 2.00018 15.8476V10.0527C2.00018 7.90127 3.74562 6.15619 5.89764 6.15619C6.12443 6.156 6.46974 6.01999 6.67596 5.79584C6.68003 5.79136 6.6853 5.78486 6.69159 5.77631L6.74335 5.6972L7.19354 4.83197C7.59546 4.10151 8.03307 3.6127 8.68182 3.35443ZM14.6437 4.70892C13.6146 4.41805 10.0347 4.43069 9.23651 4.74799C8.98349 4.84869 8.75766 5.10088 8.508 5.55463L8.12323 6.29877L8.0285 6.47064C7.9495 6.60201 7.87068 6.71315 7.78046 6.81146C7.27412 7.36183 6.5248 7.65604 5.89764 7.65619L5.7326 7.66205C4.48568 7.74661 3.50018 8.78505 3.50018 10.0527V15.8476C3.50027 17.7636 5.05367 19.3172 6.96991 19.3173H17.0305C18.9461 19.3172 20.5001 17.7632 20.5002 15.8476V10.0527C20.5002 8.72977 19.4264 7.65619 18.1027 7.65619L17.9289 7.64935C17.3404 7.60089 16.6797 7.31142 16.2199 6.81049C16.1308 6.71338 16.0514 6.60301 15.9728 6.47259C15.9616 6.45393 15.9478 6.4293 15.9318 6.40033L15.8156 6.18256L15.4914 5.55463C15.2415 5.1011 15.0159 4.84871 14.7629 4.74799L14.6437 4.70892Z" fill="black"/>
<path d="M17.5045 8.5C18.0568 8.5 18.5045 8.94772 18.5045 9.5C18.5045 10.0128 18.1184 10.4355 17.6211 10.4933L17.5045 10.5C16.9432 10.5 16.4955 10.0523 16.4955 9.5C16.4955 8.98716 16.8815 8.56449 17.3789 8.50673L17.5045 8.5Z" fill="black"/>
<path d="M11.9996 9.19904C14.1697 9.19904 15.9291 10.9577 15.9293 13.1277C15.9293 15.298 14.1698 17.0574 11.9996 17.0574C9.82949 17.0573 8.07086 15.2979 8.07086 13.1277C8.07102 10.9578 9.82959 9.19919 11.9996 9.19904ZM11.9996 10.699C10.658 10.6992 9.57102 11.7862 9.57086 13.1277C9.57086 14.4694 10.6579 15.5573 11.9996 15.5574C13.3414 15.5574 14.4293 14.4695 14.4293 13.1277C14.4291 11.7861 13.3413 10.699 11.9996 10.699Z" fill="black"/>
</svg>
