<svg width="24" height="24" viewBox="0 0 24 24" fill="none" xmlns="http://www.w3.org/2000/svg">
<path d="M20.7846 3.21955C21.0774 2.92665 21.5523 2.92665 21.8452 3.21955C22.1115 3.48581 22.1357 3.90248 21.9178 4.19609L21.8452 4.28021L15.8452 10.2802C15.5523 10.5731 15.0774 10.5731 14.7846 10.2802C14.5183 10.0139 14.4941 9.59728 14.7119 9.30367L14.7846 9.21955L20.7846 3.21955Z" fill="black"/>
<path d="M14.7846 3.21955C15.0508 2.95328 15.4675 2.92908 15.7611 3.14693L15.8452 3.21955L21.8452 9.21955C22.1381 9.51244 22.1381 9.98731 21.8452 10.2802C21.5789 10.5465 21.1623 10.5707 20.8687 10.3528L20.7846 10.2802L14.7846 4.28021C14.4917 3.98731 14.4917 3.51244 14.7846 3.21955Z" fill="black"/>
<path fill-rule="evenodd" clip-rule="evenodd" d="M2.54353 3.75316C4.47078 1.82579 5.72589 1.31522 7.06501 2.08519C7.45019 2.30669 7.81133 2.61681 8.30232 3.11547L9.80915 4.67699C10.6411 5.58482 10.83 6.45604 10.5592 7.47582L10.522 7.61156L10.481 7.74535L10.2789 8.33617C9.8479 9.66109 10.0286 10.4086 11.5621 11.9416C13.1566 13.5357 13.9008 13.6668 15.3277 13.1682L15.5826 13.0793L15.8902 12.9797L16.025 12.9426C17.1088 12.6535 18.0246 12.8843 18.9957 13.8547L20.2095 15.0266L20.566 15.3782C20.9621 15.7821 21.2242 16.1024 21.4176 16.4407C22.1827 17.7794 21.671 19.0335 19.6881 21.009L19.4996 21.2004C19.2036 21.4856 18.9272 21.6902 18.5211 21.883C17.8389 22.2069 17.0327 22.3287 16.0963 22.1985C13.7888 21.8775 10.8621 20.0571 7.15388 16.3498C6.85214 16.0482 6.56324 15.7523 6.28669 15.4621L5.74958 14.8889C0.719882 9.42426 0.27626 6.06751 2.33747 3.96214L2.47126 3.82933L2.54353 3.75316ZM6.31794 3.385C5.85642 3.1196 5.35733 3.23189 4.43513 4.02562L4.14607 4.28441C4.09559 4.331 4.04362 4.37974 3.99079 4.42992L3.65876 4.75414L3.62849 4.79125L3.4029 5.01781C2.85874 5.57377 2.60067 6.25234 2.82282 7.41918C3.18743 9.3342 4.85645 11.9322 8.21443 15.2893C11.7133 18.7873 14.3796 20.4456 16.3033 20.7131C17.4244 20.869 17.9965 20.5976 18.5797 20.0002L19.025 19.551C19.2335 19.3328 19.4116 19.135 19.5621 18.9543L19.7672 18.6955C20.2917 17.9968 20.34 17.5773 20.1158 17.1848C20.0304 17.0354 19.906 16.8713 19.7252 16.6711L19.4801 16.4123L19.3345 16.2668L17.8033 14.7883C17.2917 14.3167 16.9415 14.2502 16.4107 14.3918L16.2584 14.4358L15.6236 14.6506C13.7835 15.2449 12.4564 14.9566 10.5015 13.0022C8.47698 10.9781 8.23927 9.62698 8.91755 7.68089L8.96052 7.55589L9.08161 7.19261L9.14021 6.96214C9.24511 6.45918 9.12522 6.10838 8.58454 5.56761C8.5623 5.54538 8.53736 5.51984 8.51032 5.49242L7.08845 4.02269C6.76273 3.70158 6.52655 3.50498 6.31794 3.385Z" fill="black"/>
</svg>
