<svg width="24" height="24" viewBox="0 0 24 24" fill="none" xmlns="http://www.w3.org/2000/svg">
<path d="M12.2793 2.00391C17.6701 2.15223 22 6.57356 22 12C22 17.51 17.52 22 12 22C6.49 22 2 17.51 2 12C2 6.48 6.49 2 12 2L12.2793 2.00391ZM13.9805 8C13.6805 7.7 13.2099 7.7 12.9199 8L9.42969 11.4697C9.2897 11.6097 9.20996 11.8 9.20996 12C9.20996 12.2 9.2897 12.3903 9.42969 12.5303L12.9199 16C13.0599 16.15 13.2504 16.2197 13.4404 16.2197C13.6403 16.2196 13.8306 16.1499 13.9805 16C14.2702 15.7 14.2696 15.2304 13.9697 14.9404L11.0195 12L13.9697 9.05957C14.2696 8.76964 14.2702 8.29 13.9805 8Z" fill="black"/>
</svg>
