<svg width="24" height="24" viewBox="0 0 24 24" fill="none" xmlns="http://www.w3.org/2000/svg">
<path d="M16.33 2.00012C19.7199 2.00016 21.9999 4.38031 21.9999 7.91028V16.0802C21.9999 19.6201 19.7199 22.0001 16.33 22.0001H7.66005C4.27107 22.0001 1.99993 19.6202 1.99989 16.0802V7.91028C1.99989 4.38028 4.27105 2.00012 7.66005 2.00012H16.33ZM11.9999 7.17004C11.5799 7.17004 11.2499 7.50008 11.2499 7.92004V14.2697L8.78017 11.7902C8.64017 11.6502 8.43989 11.5704 8.24989 11.5704C8.06089 11.5704 7.86962 11.6502 7.71962 11.7902C7.42989 12.0801 7.43 12.5597 7.71962 12.8497L11.4696 16.6202C11.7496 16.9002 12.2502 16.9002 12.5302 16.6202L16.2802 12.8497C16.5698 12.5597 16.5699 12.0801 16.2802 11.7902C15.9802 11.5002 15.5099 11.5002 15.2099 11.7902L12.7499 14.2697V7.92004C12.7499 7.50008 12.4099 7.17004 11.9999 7.17004Z" fill="black"/>
</svg>
