<svg width="24" height="24" viewBox="0 0 24 24" fill="none" xmlns="http://www.w3.org/2000/svg">
<path d="M11.9932 10.835C13.4648 10.835 14.807 10.921 15.6816 11.0508C15.7005 11.0655 16.6745 11.2243 17.0088 11.3975C17.6211 11.7148 17.9998 12.3358 18 13V13.0586C17.9856 13.4898 17.6093 14.393 17.5928 14.4014C16.9506 15.9319 14.9533 18.949 13.626 20.1621C13.626 20.1621 13.2849 20.5049 13.0723 20.6533C12.7661 20.8846 12.3867 21 12.0078 21C11.585 21 11.1917 20.8703 10.8701 20.625C10.8117 20.5672 10.5643 20.3513 10.3594 20.1484C9.0761 18.9648 6.97812 15.8735 6.33594 14.2568C6.23348 14.0113 6.01554 13.3913 6 13.0586C6 12.7412 6.0734 12.4375 6.21875 12.1484C6.42253 11.7874 6.7451 11.4991 7.12402 11.3398C7.38607 11.2386 8.1696 11.0798 8.1875 11.0791C9.04775 10.9209 10.4467 10.835 11.9932 10.835ZM12 3C12.8382 3 13.5184 3.67291 13.5186 4.50293L13.1914 8.20215C13.1914 8.85341 12.6576 9.38184 12 9.38184C11.3415 9.3816 10.8096 8.85327 10.8096 8.20215L10.4824 4.50293C10.4826 3.67305 11.1621 3.00024 12 3Z" fill="black"/>
</svg>
