<svg width="24" height="24" viewBox="0 0 24 24" fill="none" xmlns="http://www.w3.org/2000/svg">
<path d="M12 14.6182C12.6585 14.6184 13.1904 15.1467 13.1904 15.7979L13.5176 19.4971C13.5174 20.3269 12.8379 20.9998 12 21C11.1618 21 10.4816 20.3271 10.4814 19.4971L10.8086 15.7979C10.8086 15.1466 11.3424 14.6182 12 14.6182ZM11.9922 3C12.415 3 12.8083 3.1297 13.1299 3.375L13.5508 3.76465L13.6406 3.85156C14.9239 5.03521 17.0219 8.12647 17.6641 9.74316L17.7578 9.9873C17.863 10.2809 17.9883 10.692 18 10.9414C18 11.2588 17.9266 11.5625 17.7812 11.8516C17.5775 12.2126 17.2549 12.5009 16.876 12.6602C16.6139 12.7614 15.8304 12.9202 15.8125 12.9209C15.0184 13.0669 13.7648 13.1509 12.3604 13.1631L12.0068 13.165C10.5352 13.165 9.19297 13.079 8.31836 12.9492L7.77441 12.835C7.48651 12.7717 7.15857 12.6892 6.99121 12.6025C6.37891 12.2852 6.00018 11.6642 6 11V10.9414C6.01443 10.5102 6.3907 9.60701 6.40723 9.59863C7.02151 8.13464 8.87561 5.31031 10.1973 4.00586L10.5938 3.62695C10.7012 3.52776 10.8286 3.41593 10.9277 3.34668C11.2339 3.11543 11.6133 3.00002 11.9922 3Z" fill="black"/>
</svg>
