<svg width="24" height="24" viewBox="0 0 24 24" fill="none" xmlns="http://www.w3.org/2000/svg">
<path d="M20.7697 2.36426C20.9977 2.36426 21.2166 2.46726 21.3752 2.62988C21.7019 2.97541 21.702 3.51392 21.3752 3.85938V3.86914L11.9582 13.5146L11.4123 14.0742L12.0901 13.3828C15.3702 16.0766 16.2959 12.2239 18.6194 14.585C21.0162 17.0316 22.394 17.5255 19.3547 20.627C18.9962 20.94 16.6942 24.4643 8.80588 16.7471L3.44455 22.2461C3.27609 22.4087 3.06783 22.5 2.84982 22.5C2.63185 22.5 2.42369 22.4086 2.24533 22.2461C1.9678 21.9513 1.9281 21.5137 2.11642 21.1885L2.14572 21.1484C2.16553 21.117 2.18536 21.0871 2.21506 21.0566L20.175 2.62988C20.3236 2.46737 20.5419 2.3644 20.7697 2.36426ZM3.25412 4.38574C6.32277 1.27347 6.79856 2.68987 9.2092 5.13672C11.2402 7.20802 8.60777 8.19566 9.68674 10.6533L6.18478 14.2051C-0.245368 6.91926 2.96879 4.74036 3.25412 4.38574Z" fill="black"/>
</svg>
