<svg width="24" height="24" viewBox="0 0 24 24" fill="none" xmlns="http://www.w3.org/2000/svg">
<path d="M19.1702 3.71436C19.4629 3.42887 19.9214 3.4289 20.2043 3.71436C20.497 3.99985 20.497 4.47181 20.2043 4.75732L18.429 6.54932C19.8438 7.84887 21.044 9.60165 21.9417 11.7085C22.0196 11.8955 22.0197 12.1124 21.9417 12.2896C19.8536 17.1923 16.1354 20.1255 11.9983 20.1255H11.9885C10.1055 20.1254 8.30054 19.5056 6.71021 18.3735L4.81763 20.2837C4.67127 20.4314 4.48544 20.5005 4.30005 20.5005C4.11483 20.5005 3.92002 20.4311 3.78345 20.2837C3.53951 20.0376 3.50041 19.6434 3.69556 19.3579L3.72485 19.3188L18.1555 4.75732C18.175 4.73771 18.1946 4.71834 18.2043 4.69873C18.2239 4.67904 18.2434 4.65885 18.2532 4.63916L19.1702 3.71436ZM12.0012 3.88525C13.3965 3.88525 14.7533 4.22001 16.0022 4.8501L12.7424 8.13818C12.5084 8.09884 12.2547 8.06982 12.0012 8.06982C9.84497 8.06988 8.09803 9.83171 8.0979 12.0073C8.0979 12.2631 8.12727 12.5192 8.16626 12.7554L4.55688 16.3989C3.58123 15.257 2.73207 13.8783 2.05884 12.2935C1.98079 12.1163 1.98081 11.8994 2.05884 11.7124C4.1469 6.8096 7.86413 3.88531 11.9915 3.88525H12.0012ZM14.1555 10.8618C14.331 11.1964 14.4279 11.5902 14.428 12.0034C14.428 13.3522 13.3351 14.4556 11.9983 14.4556C11.5886 14.4555 11.1981 14.3564 10.8665 14.1792L9.80298 15.2524C10.4273 15.6757 11.1886 15.932 11.9983 15.9321C14.1449 15.9321 15.8918 14.1693 15.8918 12.0034C15.8918 11.1865 15.6384 10.4186 15.219 9.78857L14.1555 10.8618Z" fill="black"/>
</svg>
