<svg width="24" height="24" viewBox="0 0 24 24" fill="none" xmlns="http://www.w3.org/2000/svg">
<path d="M11.4932 2C13.9755 2.00023 16 3.99057 16 6.44043V11.2305H9.89551C9.45801 11.2305 9.1123 11.57 9.1123 12C9.1123 12.42 9.45801 12.7695 9.89551 12.7695H16V17.5498C16 19.9997 13.9754 21.9999 11.4727 22H6.51758C4.02485 22 2 20.0096 2 17.5596V6.4502C2 3.99029 4.03474 2.00015 6.52734 2H11.4932ZM18.54 8.5498C18.84 8.24001 19.3299 8.24032 19.6299 8.54004L22.5498 11.4502C22.6998 11.6001 22.7802 11.7901 22.7803 12C22.7803 12.2 22.6998 12.4 22.5498 12.54L19.6299 15.4502C19.4799 15.6001 19.2798 15.6807 19.0898 15.6807C18.89 15.6806 18.69 15.6001 18.54 15.4502C18.2402 15.1502 18.2402 14.6603 18.54 14.3604L20.1406 12.7705H16V11.2305H20.1406L18.54 9.64062C18.24 9.34062 18.24 8.8498 18.54 8.5498Z" fill="black"/>
</svg>
