<svg width="24" height="24" viewBox="0 0 24 24" fill="none" xmlns="http://www.w3.org/2000/svg">
<path d="M9.96289 19.2275C10.4627 19.1218 13.5075 19.1219 14.0088 19.2275C14.4361 19.3262 14.8983 19.5572 14.8984 20.0605C14.8736 20.54 14.5927 20.9654 14.2041 21.2354C13.7002 21.6281 13.1084 21.8772 12.4902 21.9668C12.1485 22.0111 11.8123 22.0121 11.4824 21.9668C10.8634 21.8771 10.2723 21.628 9.76953 21.2344C9.37994 20.9655 9.09809 20.54 9.07324 20.0605C9.07342 19.5572 9.53567 19.3262 9.96289 19.2275ZM12.0449 2C14.1251 2 16.2505 2.98735 17.5127 4.625C18.3314 5.67935 18.707 6.73275 18.707 8.37012V8.7959C18.707 10.0518 19.0391 10.7925 19.7695 11.6455C20.3231 12.274 20.5 13.0808 20.5 13.9561C20.5 14.8302 20.213 15.6602 19.6377 16.334C18.8844 17.1417 17.8216 17.6574 16.7373 17.7471C15.1662 17.881 13.594 17.9941 12.001 17.9941C10.4068 17.9941 8.83497 17.9263 7.26367 17.7471C6.1784 17.6574 5.11562 17.1417 4.36328 16.334C3.78793 15.6602 3.50001 14.8302 3.5 13.9561C3.5 13.0808 3.67788 12.274 4.23047 11.6455C4.98379 10.7925 5.29395 10.0518 5.29395 8.7959V8.37012C5.29398 6.68826 5.71351 5.58834 6.57715 4.51172C7.86123 2.94165 9.9197 2 11.9561 2H12.0449Z" fill="black"/>
</svg>
