<svg width="24" height="24" viewBox="0 0 24 24" fill="none" xmlns="http://www.w3.org/2000/svg">
<path d="M13.2529 2C13.5101 2.00025 13.708 2.21013 13.708 2.45996V5.67969C13.708 7.50962 15.2029 9.00942 17.0146 9.01953C17.7669 9.01953 18.361 9.03027 18.8164 9.03027C19.1233 9.03027 19.6289 9.01953 20.0547 9.01953C20.302 9.01966 20.4999 9.21993 20.5 9.46973V17.5098C20.5 19.9896 18.5101 21.9998 16.0449 22H8.17285C5.5988 21.9998 3.50002 19.8899 3.5 17.29V6.50977C3.50013 4.02987 5.50055 2 7.96582 2H13.2529ZM9.37109 12.2402C8.96524 12.2403 8.62891 12.5703 8.62891 12.9902C8.62903 13.4001 8.96532 13.7304 9.37109 13.7305H14.2627C14.6684 13.7303 15.0048 13.4 15.0049 12.9902C15.0049 12.5703 14.6685 12.2404 14.2627 12.2402H9.37109ZM15.1494 2.90625C15.1494 2.47525 15.6678 2.26127 15.9639 2.57227C17.0341 3.69617 18.9037 5.66079 19.9492 6.75879C20.2382 7.0617 20.027 7.56512 19.6104 7.56641C18.7965 7.56941 17.8366 7.56657 17.1465 7.55957C16.0515 7.55949 15.1494 6.64794 15.1494 5.54199V2.90625Z" fill="black"/>
</svg>
