<svg width="24" height="24" viewBox="0 0 24 24" fill="none" xmlns="http://www.w3.org/2000/svg">
<path d="M11.2305 14.8848C11.2305 15.3223 11.57 15.668 12 15.668C12.385 15.668 12.711 15.3776 12.7627 14.9922L12.7695 14.8848V8.78027H11.2305V4.63965L9.64062 6.24023C9.34062 6.54023 8.8498 6.54023 8.5498 6.24023C8.26809 5.96752 8.24282 5.53757 8.46582 5.23633L8.54004 5.15039L11.4502 2.23047C11.6001 2.08052 11.7901 2.00005 12 2C12.1599 2 12.32 2.05125 12.4492 2.14844L12.54 2.23047L15.4502 5.15039C15.6001 5.30037 15.6807 5.50051 15.6807 5.69043C15.6805 5.89029 15.6001 6.09034 15.4502 6.24023C15.1775 6.51285 14.7475 6.53756 14.4463 6.31445L14.3604 6.24023L12.7705 4.63965V8.78027H17.5498C19.9298 8.78027 21.8853 10.6911 21.9951 13.0947L22 13.3076V18.2627C22 20.6842 20.1218 22.6642 17.7686 22.7754L17.5596 22.7803H6.4502C4.06048 22.7803 2.11414 20.8597 2.00488 18.4648L2 18.2529V13.2871C2.00019 10.8756 3.87831 8.8963 6.23145 8.78516L6.44043 8.78027H11.2305V14.8848Z" fill="black"/>
</svg>
