<svg width="24" height="24" viewBox="0 0 24 24" fill="none" xmlns="http://www.w3.org/2000/svg">
<path d="M11.9053 4.5C14.3271 4.50008 16.0184 6.16892 16.0186 8.56055V15.4395C16.0184 17.8311 14.3271 19.4999 11.9053 19.5H6.11328C3.69138 19.5 2.00017 17.8311 2 15.4395V8.56055C2.00017 6.16886 3.69138 4.5 6.11328 4.5H11.9053ZM19.958 6.87891C20.397 6.65559 20.9121 6.67941 21.3311 6.94336C21.7499 7.2063 22 7.66276 22 8.16211V15.8379C22 16.3384 21.75 16.7947 21.3311 17.0576C21.1021 17.2008 20.8459 17.2734 20.5879 17.2734C20.373 17.2734 20.1579 17.2235 19.957 17.1211L18.4756 16.373C17.928 16.0949 17.5881 15.537 17.5879 14.917V9.08301C17.5879 8.46178 17.9277 7.90312 18.4756 7.62695L19.958 6.87891Z" fill="black"/>
</svg>
