<svg width="24" height="24" viewBox="0 0 24 24" fill="none" xmlns="http://www.w3.org/2000/svg">
<path d="M20.4199 3.27051C20.7798 2.91072 21.3539 2.90873 21.7275 3.26953C22.0906 3.63257 22.0905 4.21904 21.7285 4.58105L4.58008 21.7295C4.4097 21.8998 4.16392 21.9999 3.9248 22C3.69087 22 3.45974 21.9049 3.27344 21.7324C2.9093 21.3546 2.90961 20.7799 3.27051 20.4189L6.09668 17.5928H6.06836C4.65932 17.5928 3.63391 16.5972 3.44336 15.0518C3.2306 13.5063 3.27293 10.8599 3.44336 9.45215C3.64359 7.99164 4.72403 6.9873 6.06836 6.9873H7.89844L11.3926 4.12891C11.8172 3.76916 12.5684 3.42946 13.1494 3.41992C14.208 3.41992 15.1819 4.16018 15.5312 5.3457C15.6688 5.84421 15.7233 6.34102 15.7656 6.81836L15.8486 7.49414C15.8624 7.59787 15.8752 7.69786 15.8857 7.80371L20.4199 3.27051ZM15.4873 13.5283C15.8758 13.6268 15.9526 14.1848 15.9463 14.623C15.9283 15.8952 15.8851 16.78 15.8174 17.3271L15.7705 17.7783C15.725 18.2344 15.6784 18.7063 15.543 19.21C15.1904 20.3934 14.2444 21.1621 13.1699 21.1621C13.1351 21.1621 13.1003 21.1622 13.0645 21.1611C12.4707 21.1611 11.8272 20.8052 11.4619 20.4951L10.1602 19.4883C9.66617 19.121 9.81254 18.535 10.0898 18.1953C10.3675 17.8563 14.7365 13.8737 14.8809 13.7314C15.0237 13.5918 15.3433 13.4913 15.4873 13.5283Z" fill="black"/>
</svg>
