<svg width="24" height="24" viewBox="0 0 24 24" fill="none" xmlns="http://www.w3.org/2000/svg">
<path d="M12.7695 3C13.8139 3.00023 14.788 3.75168 15.1396 4.95605C15.2687 5.45943 15.3207 5.96398 15.3711 6.4502L15.4189 6.89258C15.5995 8.36878 15.5995 15.6215 15.4189 17.1084L15.3711 17.5664C15.326 18.0291 15.2798 18.5085 15.1465 19.0195C14.7947 20.2207 13.8574 21 12.793 21C12.7595 21 12.7261 21.0001 12.6885 20.999C12.1006 20.999 11.4608 20.6378 11.0986 20.3232L7.56836 17.3828H5.75488C4.35575 17.3827 3.33146 16.3707 3.14551 14.8047C2.93134 13.2383 2.97334 10.5505 3.14551 9.12695C3.34815 7.64449 4.42073 6.61733 5.75488 6.61719H7.56836L11.0312 3.71973C11.4491 3.35685 12.1869 2.99785 12.7695 3ZM18.1475 6.25879C18.5663 5.96572 19.1401 6.07015 19.4268 6.49414C20.4409 7.98752 21 9.94299 21 12C21 14.057 20.4409 16.0125 19.4268 17.5059C19.2547 17.758 18.973 17.909 18.6719 17.9092C18.484 17.9092 18.3018 17.8507 18.1475 17.7412C17.732 17.4448 17.6293 16.8586 17.918 16.4336C18.7209 15.2505 19.1631 13.6757 19.1631 12C19.1631 10.3232 18.7209 8.74947 17.918 7.56641C17.6293 7.14136 17.732 6.55517 18.1475 6.25879Z" fill="black"/>
</svg>
