<svg width="24" height="24" viewBox="0 0 24 24" fill="none" xmlns="http://www.w3.org/2000/svg">
<path d="M21.6592 12.8154C21.6992 12.7952 21.7596 12.7852 21.8096 12.8154C21.8964 12.8642 21.8993 12.9791 21.8994 12.9873L21.8193 18.1523C21.8191 20.2787 20.1185 22 18.0176 22H5.97168C3.87097 21.9998 2.17015 20.2786 2.16992 18.1523L2.09961 12.9873C2.09972 12.9792 2.10319 12.8644 2.18945 12.8154C2.26941 12.7648 2.36971 12.8257 2.37988 12.8359C4.40066 14.1927 6.83188 15.094 9.38281 15.4688C9.74284 15.5194 10.1039 15.2862 10.2041 14.9219C10.4242 14.0918 11.1343 13.5452 11.9844 13.5449H12.0146C12.865 13.545 13.5758 14.0915 13.7959 14.9219C13.896 15.2861 14.2563 15.5191 14.6162 15.4688C17.1671 15.0941 19.5984 14.1926 21.6191 12.8359C21.6191 12.8359 21.6394 12.8255 21.6592 12.8154ZM11.9941 14.9932C11.5844 14.9936 11.2443 15.3372 11.2441 15.752V17.0586C11.2443 17.4834 11.5844 17.8179 11.9941 17.8184C12.4142 17.8184 12.7449 17.4837 12.7451 17.0586V15.752C12.7449 15.3369 12.4142 14.9932 11.9941 14.9932ZM13.2852 2C14.7858 2 16.0168 3.14412 16.207 4.6123H18.1885C20.2893 4.61252 21.9999 6.34433 22 8.4707C22 8.4707 21.9399 9.37134 21.9199 10.625C21.9179 10.7241 21.8699 10.8212 21.791 10.8799C21.3098 11.2353 20.8691 11.5296 20.8291 11.5498C19.1684 12.6636 17.2385 13.4471 15.1826 13.8369C15.0486 13.8632 14.9167 13.7933 14.8486 13.6738C14.2724 12.6754 13.1957 12.0254 11.9951 12.0254C10.8026 12.0254 9.71635 12.6685 9.12305 13.668C9.05401 13.7854 8.92311 13.8534 8.79004 13.8281C6.75124 13.4372 4.82159 12.6541 3.1709 11.5596L2.20996 10.8906C2.1302 10.84 2.0802 10.7494 2.08008 10.6484C2.05006 10.132 2 8.4707 2 8.4707C2.00008 6.34433 3.7107 4.61251 5.81152 4.6123H7.7832C7.97345 3.14422 9.20359 2.00013 10.7041 2H13.2852ZM10.7041 3.51855C10.034 3.51867 9.46389 3.98471 9.30371 4.6123H14.6865C14.5263 3.9846 13.9554 3.51855 13.2852 3.51855H10.7041Z" fill="black"/>
</svg>
