<svg width="24" height="24" viewBox="0 0 24 24" fill="none" xmlns="http://www.w3.org/2000/svg">
<path fill-rule="evenodd" clip-rule="evenodd" d="M4.45593 7.135C4.45593 9.966 6.75993 12.27 9.59193 12.27H9.62593C10.9929 12.265 12.2779 11.728 13.2399 10.757C14.2039 9.787 14.7329 8.499 14.7269 7.135C14.7269 4.304 12.4229 2 9.59193 2C6.75993 2 4.45593 4.304 4.45593 7.135ZM5.95593 7.135C5.95593 5.131 7.58693 3.5 9.59193 3.5C11.5959 3.5 13.2269 5.131 13.2269 7.138C13.2309 8.104 12.8579 9.015 12.1759 9.7C11.4949 10.387 10.5869 10.766 9.62293 10.77H9.59193C7.58693 10.77 5.95593 9.139 5.95593 7.135Z" fill="black"/>
<path fill-rule="evenodd" clip-rule="evenodd" d="M1.99988 17.519C1.99988 21.057 7.51588 21.057 9.59188 21.057C11.4699 21.057 17.1839 21.057 17.1839 17.499C17.1839 14.324 12.8509 13.957 9.59188 13.957C7.71388 13.957 1.99988 13.957 1.99988 17.519ZM3.49988 17.519C3.49988 15.814 6.81288 15.457 9.59188 15.457C13.6339 15.457 15.6839 16.144 15.6839 17.499C15.6839 18.864 13.6339 19.557 9.59188 19.557C5.54988 19.557 3.49988 18.871 3.49988 17.519Z" fill="black"/>
<path d="M16.4825 11.1318C16.1145 11.1318 15.7935 10.8608 15.7405 10.4858C15.6835 10.0758 15.9685 9.69577 16.3785 9.63877C17.6265 9.46377 18.5685 8.38077 18.5705 7.11877C18.5705 5.86477 17.6725 4.80677 16.4375 4.60477C16.0285 4.53677 15.7515 4.15177 15.8185 3.74277C15.8855 3.33377 16.2725 3.05877 16.6795 3.12377C18.6445 3.44577 20.0705 5.12677 20.0705 7.11977C20.0665 9.12477 18.5695 10.8468 16.5875 11.1248C16.5525 11.1298 16.5175 11.1318 16.4825 11.1318Z" fill="black"/>
<path d="M19.1946 17.9769C19.3076 18.2759 19.5926 18.4609 19.8956 18.4609C19.9846 18.4609 20.0746 18.4449 20.1616 18.4119C21.6646 17.8429 21.9796 16.8559 21.9796 16.1269C21.9796 15.1479 21.4126 13.8949 18.7066 13.4899C18.3046 13.4369 17.9156 13.7119 17.8536 14.1219C17.7926 14.5309 18.0756 14.9129 18.4856 14.9749C19.8086 15.1719 20.4796 15.5599 20.4796 16.1269C20.4796 16.2949 20.4796 16.6879 19.6296 17.0099C19.2426 17.1559 19.0476 17.5899 19.1946 17.9769Z" fill="black"/>
</svg>
