<svg width="24" height="24" viewBox="0 0 24 24" fill="none" xmlns="http://www.w3.org/2000/svg">
<path fill-rule="evenodd" clip-rule="evenodd" d="M11.7512 11.5498C11.3372 11.5498 11.0012 11.8858 11.0012 12.2998V21.2498C11.0012 21.6638 11.3372 21.9998 11.7512 21.9998C12.1652 21.9998 12.5012 21.6638 12.5012 21.2498V12.2998C12.5012 11.8858 12.1652 11.5498 11.7512 11.5498Z" fill="black"/>
<mask id="mask0_19_921" style="mask-type:luminance" maskUnits="userSpaceOnUse" x="6" y="3" width="12" height="11">
<path fill-rule="evenodd" clip-rule="evenodd" d="M6.00005 13.0498H17.502V3.61331H6.00005V13.0498Z" fill="white"/>
</mask>
<g mask="url(#mask0_19_921)">
<path fill-rule="evenodd" clip-rule="evenodd" d="M8.1096 11.5498L11.7516 5.7708L15.3926 11.5498H8.1096ZM11.7516 3.6128C11.4936 3.6128 11.2546 3.7448 11.1166 3.9638L6.1156 11.9008C5.9696 12.1308 5.9616 12.4228 6.0936 12.6618C6.2256 12.9018 6.4766 13.0498 6.7506 13.0498H16.7526C17.0256 13.0498 17.2766 12.9018 17.4086 12.6618C17.5416 12.4228 17.5326 12.1308 17.3866 11.9008L12.3856 3.9638C12.2486 3.7448 12.0086 3.6128 11.7516 3.6128Z" fill="black"/>
</g>
</svg>
