<?xml version="1.0" encoding="UTF-8"?>
<svg version="1.1" xmlns="http://www.w3.org/2000/svg" width="100" height="100">
<path d="M0 0 C1.2065625 0.0309375 1.2065625 0.0309375 2.4375 0.0625 C2.7675 2.0425 3.0975 4.0225 3.4375 6.0625 C12.0175 6.0625 20.5975 6.0625 29.4375 6.0625 C29.4375 4.4125 29.4375 2.7625 29.4375 1.0625 C30.4375 0.0625 30.4375 0.0625 32.9375 -0.0625 C35.4375 0.0625 35.4375 0.0625 36.4375 1.0625 C36.47813832 2.72867115 36.480221 4.39638095 36.4375 6.0625 C37.01757812 6.16046875 37.59765625 6.2584375 38.1953125 6.359375 C44.68158324 7.60097138 49.05179641 9.54425732 53.6875 14.4375 C57.90931694 20.77022541 57.77111994 27.09333837 57.80859375 34.453125 C57.81762222 35.55291687 57.8266507 36.65270874 57.83595276 37.78582764 C57.85043208 40.10898121 57.85933622 42.43217535 57.86303711 44.75537109 C57.87491371 48.28684233 57.92410875 51.81655433 57.97460938 55.34765625 C57.98407691 57.6119707 57.99131036 59.87629581 57.99609375 62.140625 C58.01562607 63.18575256 58.03515839 64.23088013 58.05528259 65.30767822 C58.01186751 72.4576788 56.64756038 78.16920709 52.4375 84.0625 C47.61326782 88.04731152 42.95895228 90.1603148 36.66577148 90.25537109 C35.6972374 90.27143402 34.72870331 90.28749695 33.7308197 90.30404663 C29.2866192 90.34872485 24.84256645 90.38959398 20.39819336 90.41259766 C18.06182869 90.42911136 15.72551357 90.45634008 13.3894043 90.49462891 C10.00803606 90.54972736 6.62785204 90.5713265 3.24609375 90.5859375 C1.69709633 90.61994156 1.69709633 90.61994156 0.11680603 90.65463257 C-7.01115848 90.63412482 -12.68755449 89.25488964 -18.5625 85.0625 C-22.62010862 80.15106415 -24.66895037 75.47528026 -24.73950195 69.07543945 C-24.75875481 67.55289299 -24.75875481 67.55289299 -24.77839661 65.99958801 C-24.78578354 64.90273178 -24.79317047 63.80587555 -24.80078125 62.67578125 C-24.808853 61.54480515 -24.81692474 60.41382904 -24.82524109 59.24858093 C-24.83908011 56.8520155 -24.84980307 54.45543038 -24.85766602 52.05883789 C-24.87485093 48.40667967 -24.91873708 44.7554332 -24.96289062 41.10351562 C-24.97302019 38.77344415 -24.98153547 36.44336498 -24.98828125 34.11328125 C-25.00578934 33.02654617 -25.02329742 31.9398111 -25.04133606 30.82014465 C-25.01816528 22.65617384 -23.56691061 17.20665064 -17.875 11.25 C-13.64962358 8.45965708 -8.74003595 6.0625 -3.5625 6.0625 C-3.583125 5.258125 -3.60375 4.45375 -3.625 3.625 C-3.54067676 0.16774696 -3.45725304 0.08432324 0 0 Z M3.4375 13.0625 C2.7775 15.3725 2.1175 17.6825 1.4375 20.0625 C-0.2125 20.0625 -1.8625 20.0625 -3.5625 20.0625 C-3.5625 18.0825 -3.5625 16.1025 -3.5625 14.0625 C-6.92265365 14.12970307 -9.56762412 14.3251473 -12.328125 16.37109375 C-17.11753852 21.40462787 -16.67270187 23.05431679 -17.5625 31.0625 C4.8775 31.0625 27.3175 31.0625 50.4375 31.0625 C49.77012019 22.22947233 49.77012019 22.22947233 45.203125 16.37109375 C42.44262412 14.3251473 39.79765365 14.12970307 36.4375 14.0625 C36.4375 16.0425 36.4375 18.0225 36.4375 20.0625 C34.7875 20.0625 33.1375 20.0625 31.4375 20.0625 C30.7775 17.7525 30.1175 15.4425 29.4375 13.0625 C20.8575 13.0625 12.2775 13.0625 3.4375 13.0625 Z M-17.5625 38.0625 C-20.02217478 67.63386243 -20.02217478 67.63386243 -13.5625 79.0625 C-7.57322942 83.14697557 -2.55732388 83.65808576 4.5625 83.59375 C5.50883301 83.5975769 6.45516602 83.60140381 7.43017578 83.60534668 C9.42025829 83.60805461 11.41037708 83.60077229 13.40039062 83.58398438 C16.42920029 83.56255871 19.45563823 83.58382433 22.484375 83.609375 C24.42708852 83.60673153 26.36980057 83.60160614 28.3125 83.59375 C29.20855957 83.60184692 30.10461914 83.60994385 31.02783203 83.61828613 C37.20553819 83.52712914 41.28169344 82.57858191 46.4375 79.0625 C52.89717478 67.63386243 52.89717478 67.63386243 50.4375 38.0625 C27.9975 38.0625 5.5575 38.0625 -17.5625 38.0625 Z " fill="#96BFE9" transform="translate(32.5625,3.9375)"/>
<path d="M0 0 C2.625 0.375 2.625 0.375 5 1 C6.125 4.75 6.125 4.75 5 7 C3.02 7 1.04 7 -1 7 C-1.625 4.625 -1.625 4.625 -2 2 C-1.34 1.34 -0.68 0.68 0 0 Z " fill="#87ACD1" transform="translate(47,67)"/>
<path d="M0 0 C2.5 0.125 2.5 0.125 3.5 1.125 C3.625 3.625 3.625 3.625 3.5 6.125 C2.5 7.125 2.5 7.125 0 7.25 C-2.5 7.125 -2.5 7.125 -3.5 6.125 C-3.625 3.625 -3.625 3.625 -3.5 1.125 C-2.5 0.125 -2.5 0.125 0 0 Z " fill="#87ADD2" transform="translate(67.5,66.875)"/>
<path d="M0 0 C2.5 0.125 2.5 0.125 3.5 1.125 C3.625 3.625 3.625 3.625 3.5 6.125 C2.5 7.125 2.5 7.125 0 7.25 C-2.5 7.125 -2.5 7.125 -3.5 6.125 C-3.625 3.625 -3.625 3.625 -3.5 1.125 C-2.5 0.125 -2.5 0.125 0 0 Z " fill="#87ADD2" transform="translate(30.5,66.875)"/>
<path d="M0 0 C2.5 0.125 2.5 0.125 3.5 1.125 C3.625 3.625 3.625 3.625 3.5 6.125 C2.5 7.125 2.5 7.125 0 7.25 C-2.5 7.125 -2.5 7.125 -3.5 6.125 C-3.625 3.625 -3.625 3.625 -3.5 1.125 C-2.5 0.125 -2.5 0.125 0 0 Z " fill="#88ADD2" transform="translate(67.5,50.875)"/>
<path d="M0 0 C2.5 0.125 2.5 0.125 3.5 1.125 C3.625 3.625 3.625 3.625 3.5 6.125 C2.5 7.125 2.5 7.125 0 7.25 C-2.5 7.125 -2.5 7.125 -3.5 6.125 C-3.625 3.625 -3.625 3.625 -3.5 1.125 C-2.5 0.125 -2.5 0.125 0 0 Z " fill="#87ADD2" transform="translate(30.5,50.875)"/>
<path d="M0 0 C2.625 0.375 2.625 0.375 5 1 C5.625 2.875 5.625 2.875 6 5 C5.34 5.66 4.68 6.32 4 7 C1.375 6.625 1.375 6.625 -1 6 C-1.625 4.125 -1.625 4.125 -2 2 C-1.34 1.34 -0.68 0.68 0 0 Z " fill="#89AFD5" transform="translate(47,51)"/>
</svg>
