<?xml version="1.0" encoding="UTF-8"?>
<svg version="1.1" xmlns="http://www.w3.org/2000/svg" width="100" height="100">
<path d="M0 0 C2.5 0.125 2.5 0.125 3.5 1.125 C3.85051699 4.09000394 4.14416489 7.04218396 4.40234375 10.015625 C4.57210417 11.8580878 4.74203136 13.70053524 4.91210938 15.54296875 C5.1758356 18.45695955 5.43715781 21.3711331 5.69506836 24.28564453 C5.94510942 27.0921111 6.20446707 29.89760119 6.46484375 32.703125 C6.53887924 33.57100647 6.61291473 34.43888794 6.68919373 35.33306885 C7.08521455 39.55247272 7.45916287 43.32621406 9.5 47.125 C12.64469795 48.69734898 16.01217035 48.28796406 19.46484375 48.29296875 C20.6485128 48.29796135 20.6485128 48.29796135 21.85609436 48.30305481 C23.52637142 48.30812098 25.19665862 48.31046323 26.86694336 48.31030273 C29.42383485 48.31248832 31.98029432 48.33064446 34.53710938 48.34960938 C36.15885269 48.35254352 37.78059805 48.35452818 39.40234375 48.35546875 C40.16804184 48.36265427 40.93373993 48.36983978 41.72264099 48.37724304 C45.52327773 48.36086757 47.25913335 48.28557776 50.5 46.125 C51.21780538 43.57688373 51.21780538 43.57688373 51.5 40.375 C51.61009399 39.4466333 51.61009399 39.4466333 51.72241211 38.49951172 C52.29459223 33.50373963 52.76156746 28.49634092 53.25390625 23.4921875 C53.32040375 22.81881348 53.38690125 22.14543945 53.45541382 21.45166016 C53.79460559 18.00920824 54.12718244 14.56635435 54.44726562 11.12207031 C54.56908203 9.84686523 54.69089844 8.57166016 54.81640625 7.2578125 C54.92412354 6.10168457 55.03184082 4.94555664 55.14282227 3.75439453 C55.5 1.125 55.5 1.125 56.5 0.125 C59 0 59 0 61.5 0.125 C62.5 1.125 62.5 1.125 62.64160156 3.04223633 C62.6386403 10.93324938 62.12507056 18.75874411 61.43798828 26.61450195 C61.24951037 28.81822487 61.08376865 31.0229857 60.91796875 33.22851562 C59.77598571 47.14599239 59.77598571 47.14599239 55.5 53.125 C50.41680844 56.44586322 46.0233986 56.57892801 40.15625 56.55859375 C39.26893188 56.5638356 38.38161377 56.56907745 37.46740723 56.57447815 C35.59823652 56.580879 33.72902543 56.57958653 31.85986328 56.57104492 C29.00870796 56.56252602 26.15955193 56.59133679 23.30859375 56.62304688 C21.48697976 56.62465894 19.66536225 56.62408125 17.84375 56.62109375 C16.57319763 56.63794472 16.57319763 56.63794472 15.27697754 56.65513611 C9.9193299 56.59239222 6.59362631 55.90884045 2.5 52.125 C-0.09197307 47.41957733 -0.97315245 43.17743673 -1.44921875 37.86328125 C-1.54273369 36.85541817 -1.54273369 36.85541817 -1.63813782 35.82719421 C-1.76696387 34.41336441 -1.8901982 32.99901481 -2.00805664 31.58422852 C-2.18569735 29.45906563 -2.3813207 27.33617161 -2.58007812 25.21289062 C-4.03616113 9.13828768 -4.03616113 9.13828768 -3.5 1.125 C-2.5 0.125 -2.5 0.125 0 0 Z " fill="#636C76" transform="translate(21.5,35.875)"/>
<path d="M0 0 C1.18464844 -0.04125 2.36929688 -0.0825 3.58984375 -0.125 C11.96414046 -0.20052917 11.96414046 -0.20052917 14.98925781 1.625 C18.07448178 5.02938506 19.16394894 9.13158608 20.125 13.5 C21.32898438 13.54898437 22.53296875 13.59796875 23.7734375 13.6484375 C25.34898198 13.72346343 26.92450166 13.79901133 28.5 13.875 C29.2940625 13.9059375 30.088125 13.936875 30.90625 13.96875 C36.8984375 14.2734375 36.8984375 14.2734375 39.125 16.5 C38.56944444 21.05555556 38.56944444 21.05555556 37.125 22.5 C34.83530896 22.60498905 32.54233118 22.63857559 30.25024414 22.64526367 C29.17219765 22.65030159 29.17219765 22.65030159 28.07237244 22.65544128 C25.6849497 22.66497839 23.29759688 22.66689577 20.91015625 22.66796875 C19.25727814 22.67117943 17.60440032 22.67454335 15.95152283 22.67805481 C12.48207948 22.684053 9.01266106 22.68589401 5.54321289 22.68530273 C1.08962833 22.68520108 -3.36379693 22.69885402 -7.81734371 22.71607494 C-11.23247517 22.72717397 -14.64756787 22.72922259 -18.06271553 22.72869301 C-19.70501823 22.72987627 -21.34732182 22.73431731 -22.98960686 22.74202538 C-25.28346907 22.75178313 -27.57698221 22.74896414 -29.87084961 22.74291992 C-31.83156654 22.74505745 -31.83156654 22.74505745 -33.83189392 22.74723816 C-36.875 22.5 -36.875 22.5 -38.875 20.5 C-38.31944444 15.94444444 -38.31944444 15.94444444 -36.875 14.5 C-34.01622091 14.26298761 -31.17616703 14.07780818 -28.3125 13.9375 C-27.50619141 13.89431641 -26.69988281 13.85113281 -25.86914062 13.80664062 C-23.87131195 13.70024738 -21.8731793 13.59959112 -19.875 13.5 C-19.49408203 12.34371094 -19.49408203 12.34371094 -19.10546875 11.1640625 C-18.76128906 10.16117188 -18.41710937 9.15828125 -18.0625 8.125 C-17.72605469 7.12726562 -17.38960937 6.12953125 -17.04296875 5.1015625 C-14.01776998 -1.63684012 -6.29728769 0.05446303 0 0 Z M-9.875 7.5 C-10.205 9.81 -10.535 12.12 -10.875 14.5 C-3.615 14.5 3.645 14.5 11.125 14.5 C10.795 12.19 10.465 9.88 10.125 7.5 C3.525 7.5 -3.075 7.5 -9.875 7.5 Z " fill="#616A74" transform="translate(50.875,7.5)"/>
</svg>
