<svg width="24" height="24" viewBox="0 0 24 24" fill="none" xmlns="http://www.w3.org/2000/svg">
<mask id="mask0_19_192" style="mask-type:luminance" maskUnits="userSpaceOnUse" x="3" y="2" width="18" height="20">
<path fill-rule="evenodd" clip-rule="evenodd" d="M3.00031 2.01172H20.053V21.8652H3.00031V2.01172Z" fill="white"/>
</mask>
<g mask="url(#mask0_19_192)">
<path fill-rule="evenodd" clip-rule="evenodd" d="M7.57341 3.51172C5.91641 3.51172 4.54041 4.85372 4.50141 6.50872V17.2037C4.46441 18.9167 5.81441 20.3277 7.51041 20.3657H15.5744C17.2434 20.2967 18.5654 18.9097 18.5534 17.2097V8.33972L13.9184 3.51172H7.58541H7.57341ZM7.58541 21.8657H7.47641C4.95441 21.8087 2.94641 19.7107 3.00141 17.1877V6.49072C3.05941 4.00972 5.10841 2.01172 7.57141 2.01172H7.58841H14.2384C14.4424 2.01172 14.6374 2.09472 14.7794 2.24172L19.8444 7.51872C19.9784 7.65772 20.0534 7.84472 20.0534 8.03772V17.2037C20.0714 19.7127 18.1174 21.7627 15.6044 21.8647L7.58541 21.8657Z" fill="black"/>
</g>
<path fill-rule="evenodd" clip-rule="evenodd" d="M19.2985 8.98431H16.5435C14.7135 8.97931 13.2255 7.48731 13.2255 5.65931V2.75031C13.2255 2.33631 13.5615 2.00031 13.9755 2.00031C14.3895 2.00031 14.7255 2.33631 14.7255 2.75031V5.65931C14.7255 6.66331 15.5425 7.48131 16.5455 7.48431H19.2985C19.7125 7.48431 20.0485 7.82031 20.0485 8.23431C20.0485 8.64831 19.7125 8.98431 19.2985 8.98431Z" fill="black"/>
<path fill-rule="evenodd" clip-rule="evenodd" d="M13.7887 16.1084H8.38873C7.97473 16.1084 7.63873 15.7724 7.63873 15.3584C7.63873 14.9444 7.97473 14.6084 8.38873 14.6084H13.7887C14.2027 14.6084 14.5387 14.9444 14.5387 15.3584C14.5387 15.7724 14.2027 16.1084 13.7887 16.1084Z" fill="black"/>
<path fill-rule="evenodd" clip-rule="evenodd" d="M11.7438 12.3564H8.38782C7.97382 12.3564 7.63782 12.0204 7.63782 11.6064C7.63782 11.1924 7.97382 10.8564 8.38782 10.8564H11.7438C12.1578 10.8564 12.4938 11.1924 12.4938 11.6064C12.4938 12.0204 12.1578 12.3564 11.7438 12.3564Z" fill="black"/>
</svg>
