<svg width="24" height="24" viewBox="0 0 24 24" fill="none" xmlns="http://www.w3.org/2000/svg">
<mask id="mask0_19_631" style="mask-type:luminance" maskUnits="userSpaceOnUse" x="2" y="8" width="20" height="15">
<path fill-rule="evenodd" clip-rule="evenodd" d="M2.0004 8.79413H22V22.5381H2.0004V8.79413Z" fill="white"/>
</mask>
<g mask="url(#mask0_19_631)">
<path fill-rule="evenodd" clip-rule="evenodd" d="M17.5654 22.5381H6.4354C3.9904 22.5381 2.0004 20.5491 2.0004 18.1031V13.2281C2.0004 10.7831 3.9904 8.79413 6.4354 8.79413H7.3684C7.7824 8.79413 8.1184 9.13013 8.1184 9.54413C8.1184 9.95813 7.7824 10.2941 7.3684 10.2941H6.4354C4.8164 10.2941 3.5004 11.6101 3.5004 13.2281V18.1031C3.5004 19.7221 4.8164 21.0381 6.4354 21.0381H17.5654C19.1834 21.0381 20.5004 19.7221 20.5004 18.1031V13.2191C20.5004 11.6061 19.1884 10.2941 17.5764 10.2941H16.6334C16.2194 10.2941 15.8834 9.95813 15.8834 9.54413C15.8834 9.13013 16.2194 8.79413 16.6334 8.79413H17.5764C20.0154 8.79413 22.0004 10.7791 22.0004 13.2191V18.1031C22.0004 20.5491 20.0104 22.5381 17.5654 22.5381Z" fill="black"/>
</g>
<mask id="mask1_19_631" style="mask-type:luminance" maskUnits="userSpaceOnUse" x="11" y="2" width="2" height="14">
<path fill-rule="evenodd" clip-rule="evenodd" d="M11.25 2.00012H12.75V15.541H11.25V2.00012Z" fill="white"/>
</mask>
<g mask="url(#mask1_19_631)">
<path fill-rule="evenodd" clip-rule="evenodd" d="M12 15.541C11.586 15.541 11.25 15.205 11.25 14.791V2.75C11.25 2.336 11.586 2 12 2C12.414 2 12.75 2.336 12.75 2.75V14.791C12.75 15.205 12.414 15.541 12 15.541Z" fill="black"/>
</g>
<path fill-rule="evenodd" clip-rule="evenodd" d="M9.08499 6.42871C8.89399 6.42871 8.70199 6.35571 8.55599 6.20971C8.26299 5.91771 8.26099 5.44371 8.55399 5.14971L11.469 2.22171C11.75 1.93871 12.25 1.93871 12.531 2.22171L15.447 5.14971C15.739 5.44371 15.738 5.91771 15.445 6.20971C15.151 6.50171 14.677 6.50171 14.385 6.20771L12 3.81371L9.61599 6.20771C9.46999 6.35571 9.27699 6.42871 9.08499 6.42871Z" fill="black"/>
</svg>
