<svg width="24" height="24" viewBox="0 0 24 24" fill="none" xmlns="http://www.w3.org/2000/svg">
<path d="M12 2C17.52 2 22 6.49 22 12L21.9961 12.2793C21.8478 17.6701 17.4264 22 12 22C6.49 22 2 17.52 2 12C2 6.49 6.49 2 12 2ZM12 9.20996C11.8 9.20996 11.6097 9.2897 11.4697 9.42969L8 12.9199C7.85 13.0599 7.78027 13.2504 7.78027 13.4404C7.78037 13.6403 7.85011 13.8306 8 13.9805C8.29999 14.2702 8.76964 14.2696 9.05957 13.9697L12 11.0195L14.9404 13.9697C15.2304 14.2696 15.71 14.2702 16 13.9805C16.3 13.6805 16.3 13.2099 16 12.9199L12.5303 9.42969C12.3903 9.2897 12.2 9.20996 12 9.20996Z" fill="black"/>
</svg>
