<svg width="24" height="24" viewBox="0 0 24 24" fill="none" xmlns="http://www.w3.org/2000/svg">
<path d="M16.08 2C19.6199 2.00003 21.9999 4.27999 21.9999 7.66992V16.3398C21.9999 19.7288 19.6199 22 16.08 22H7.91005C4.38005 22 1.99989 19.7288 1.99989 16.3398V7.66992C1.99993 4.27996 4.38008 2 7.91005 2H16.08ZM12.8495 7.71973C12.5595 7.43011 12.0798 7.42999 11.7899 7.71973C11.4999 8.01973 11.4999 8.49004 11.7899 8.79004L14.2694 11.25H7.91982C7.49985 11.25 7.16982 11.59 7.16982 12C7.16982 12.42 7.49985 12.75 7.91982 12.75H14.2694L11.7899 15.2197C11.6499 15.3597 11.5702 15.56 11.5702 15.75C11.5702 15.939 11.6499 16.1303 11.7899 16.2803C12.0798 16.57 12.5595 16.5699 12.8495 16.2803L16.62 12.5303C16.9 12.2503 16.9 11.7497 16.62 11.4697L12.8495 7.71973Z" fill="black"/>
</svg>
