<svg width="24" height="24" viewBox="0 0 24 24" fill="none" xmlns="http://www.w3.org/2000/svg">
<path d="M16.3397 2C19.7287 2 21.9999 4.37997 21.9999 7.91992V16.0898C21.9999 19.6198 19.7287 22 16.3397 22H7.66982C4.27986 22 1.99989 19.6198 1.99989 16.0898V7.91992C1.99993 4.37999 4.27988 2.00004 7.66982 2H16.3397ZM12.5302 7.37988C12.2502 7.09988 11.7496 7.09988 11.4696 7.37988L7.71962 11.1504C7.43 11.4404 7.42989 11.9201 7.71962 12.21C8.01962 12.5 8.48993 12.5 8.78993 12.21L11.2499 9.73047V16.0801C11.2499 16.5 11.5899 16.8301 11.9999 16.8301C12.4199 16.8301 12.7499 16.5 12.7499 16.0801V9.73047L15.2196 12.21C15.3596 12.35 15.5599 12.4297 15.7499 12.4297C15.9389 12.4297 16.1302 12.35 16.2802 12.21C16.5699 11.9201 16.5698 11.4404 16.2802 11.1504L12.5302 7.37988Z" fill="black"/>
</svg>
