<svg width="24" height="24" viewBox="0 0 24 24" fill="none" xmlns="http://www.w3.org/2000/svg">
<path d="M12.0051 2C14.685 2.00006 16.8883 4.10604 17.0002 6.77441H16.9738C16.9769 6.85195 16.9616 6.92915 16.9299 7H17.0861C18.3499 7 19.6763 7.90969 20.1447 10.1201L20.9133 16.3145C21.4789 20.3533 19.2075 22 16.1584 22H7.86835C4.81054 22 2.46836 20.8626 3.10468 16.3145L3.883 10.1201C4.2807 7.84603 5.65033 7 6.93182 7H7.00995C6.99677 6.92538 6.99678 6.84904 7.00995 6.77441C7.12178 4.106 9.32512 2 12.0051 2ZM9.09686 10.3291C8.60883 10.3292 8.21307 10.7369 8.21307 11.2393C8.21324 11.7414 8.60894 12.1484 9.09686 12.1484C9.58486 12.1484 9.98048 11.7415 9.98065 11.2393C9.98065 10.7369 9.58497 10.3291 9.09686 10.3291ZM14.8859 10.3291C14.3978 10.3291 14.0021 10.7369 14.0021 11.2393C14.0023 11.7415 14.3979 12.1484 14.8859 12.1484C15.3739 12.1484 15.7695 11.7415 15.7697 11.2393C15.7697 10.7369 15.374 10.3291 14.8859 10.3291ZM11.966 3.30273C10.0419 3.30274 8.48163 4.85692 8.48163 6.77441C8.4948 6.84905 8.49481 6.92536 8.48163 7H15.4933C15.4655 6.92797 15.4504 6.85159 15.4494 6.77441C15.4494 4.85699 13.89 3.30286 11.966 3.30273Z" fill="black"/>
</svg>
