<svg width="24" height="24" viewBox="0 0 24 24" fill="none" xmlns="http://www.w3.org/2000/svg">
<path d="M16.334 2C19.7232 2.00008 22 4.37844 22 7.91699V16.083C22 19.6215 19.7232 21.9999 16.333 22H7.66602C4.27682 21.9999 2 19.6216 2 16.083V7.91699C2 4.37844 4.27682 2.00008 7.66602 2H16.334ZM17.4365 12.5498C16.3648 11.8815 15.5378 12.8207 15.3145 13.1211C15.0993 13.411 14.9138 13.7309 14.7188 14.0508C14.2422 14.8401 13.6959 15.7499 12.751 16.2793C11.3774 17.0398 10.3341 16.3399 9.58398 15.8301C9.30257 15.6403 9.0292 15.4605 8.75684 15.3408C8.08513 15.0508 7.48091 15.3813 6.58398 16.5205C6.11345 17.1159 5.64637 17.7058 5.17383 18.2939C4.89127 18.6458 4.95877 19.1885 5.33984 19.4238C5.94819 19.7984 6.69072 20 7.5293 20H15.957C16.4324 19.9999 16.909 19.9347 17.3633 19.7861C18.3869 19.4517 19.1997 18.6861 19.624 17.6748C19.9819 16.8245 20.1561 15.7921 19.8213 14.9336C19.7097 14.6489 19.5427 14.3835 19.3086 14.1504C18.6942 13.5405 18.1192 12.9708 17.4365 12.5498ZM8.49902 6C7.1204 6.00002 6 7.12175 6 8.5C6 9.87825 7.1204 11 8.49902 11C9.87657 10.9999 10.998 9.8782 10.998 8.5C10.998 7.1218 9.87657 6.00011 8.49902 6Z" fill="black"/>
</svg>
