<svg width="24" height="24" viewBox="0 0 24 24" fill="none" xmlns="http://www.w3.org/2000/svg">
<path d="M13.2529 2C13.5002 2.00026 13.708 2.21013 13.708 2.45996V5.67969C13.708 7.50962 15.193 9.00942 17.0146 9.01953C17.7571 9.01953 18.3512 9.03027 18.8066 9.03027C19.1136 9.03027 19.6192 9.01953 20.0449 9.01953C20.2922 9.01973 20.4998 9.21998 20.5 9.46973V17.5098C20.5 19.9896 18.5002 21.9998 16.0449 22H8.17285C5.5889 21.9998 3.50002 19.8899 3.5 17.29V6.50977C3.50013 4.02987 5.49065 2 7.96582 2H13.2529ZM11.6387 8.74023C11.5397 8.74023 11.4406 8.75985 11.3516 8.7998C11.2625 8.83976 11.1835 8.89008 11.1143 8.95996L8.28223 11.8398C7.99515 12.1298 7.99525 12.5996 8.28223 12.8896C8.56936 13.1796 9.03514 13.1796 9.32227 12.8896L10.8965 11.29V16.1201C10.8965 16.5301 11.2229 16.8604 11.6387 16.8604C12.0445 16.8603 12.371 16.53 12.3711 16.1201V11.29L13.9453 12.8896C14.2324 13.1796 14.6982 13.1796 14.9854 12.8896C15.2821 12.5996 15.2822 12.1298 14.9951 11.8398L12.1533 8.95996C12.0841 8.89003 12.0051 8.83978 11.916 8.7998C11.8269 8.75981 11.7377 8.74024 11.6387 8.74023ZM15.1455 2.90625C15.1455 2.47525 15.662 2.26127 15.958 2.57227C17.0293 3.69625 18.8998 5.6608 19.9453 6.75879C20.2334 7.06179 20.0213 7.56541 19.6045 7.56641C18.7908 7.5694 17.8326 7.56559 17.1426 7.55859C16.0475 7.55859 15.1455 6.64799 15.1455 5.54199V2.90625Z" fill="black"/>
</svg>
