<svg width="24" height="24" viewBox="0 0 24 24" fill="none" xmlns="http://www.w3.org/2000/svg">
<path d="M13.2529 2C13.5002 2.00026 13.708 2.21013 13.708 2.45996V5.67969C13.708 7.50962 15.193 9.00942 17.0146 9.01953C17.7571 9.01953 18.3611 9.03027 18.8066 9.03027C19.1136 9.03027 19.6192 9.01953 20.0449 9.01953C20.3021 9.01972 20.4999 9.21997 20.5 9.46973V17.5098C20.5 19.9896 18.5002 21.9998 16.0449 22H8.17285C5.5889 21.9998 3.50002 19.8899 3.5 17.29V6.50977C3.50013 4.02987 5.49065 2 7.96582 2H13.2529ZM11.6387 8.74023C11.2327 8.74023 10.8965 9.07023 10.8965 9.49023V14.3096L9.32227 12.71C9.03515 12.42 8.56936 12.42 8.28223 12.71C7.99517 12.9999 7.99531 13.4695 8.28223 13.7695L11.1143 16.6396C11.1836 16.7096 11.2625 16.7598 11.3516 16.7998C11.4407 16.8398 11.5397 16.8604 11.6387 16.8604C11.7377 16.8603 11.8269 16.8398 11.916 16.7998C12.005 16.7598 12.0841 16.7096 12.1533 16.6396L14.9951 13.7695C15.282 13.4695 15.2822 12.9999 14.9854 12.71C14.6982 12.42 14.2324 12.42 13.9453 12.71L12.3711 14.3096V9.49023C12.3711 9.07025 12.0446 8.74027 11.6387 8.74023ZM15.1455 2.90625C15.1455 2.47525 15.663 2.26127 15.958 2.57227C17.0293 3.69628 18.8998 5.66083 19.9453 6.75879C20.2344 7.06178 20.0223 7.56538 19.6045 7.56641C18.7916 7.56941 17.8317 7.56657 17.1416 7.55957C16.0468 7.55931 15.1455 6.64783 15.1455 5.54199V2.90625Z" fill="black"/>
</svg>
