<svg width="24" height="24" viewBox="0 0 24 24" fill="none" xmlns="http://www.w3.org/2000/svg">
<path d="M12.7167 2.00012C13.4729 2.00012 14.1579 2.42019 14.536 3.04016C14.7199 3.34006 14.8429 3.70988 14.8124 4.09973C14.7919 4.39973 14.8832 4.70059 15.0468 4.98059C15.568 5.83047 16.7237 6.15001 17.6229 5.67004C18.6345 5.09039 19.9115 5.44016 20.494 6.42981L21.1786 7.61047C21.7712 8.60046 21.4446 9.87057 20.4227 10.4406C19.5542 10.9506 19.2473 12.0806 19.7684 12.9406C19.9319 13.2105 20.1162 13.4402 20.4022 13.5802C20.7599 13.7702 21.0362 14.0702 21.2303 14.3702C21.6083 14.9901 21.5776 15.7502 21.2098 16.42L20.494 17.6202C20.1159 18.2601 19.4109 18.6602 18.6854 18.6603C18.3279 18.6603 17.9294 18.5603 17.6024 18.3605C17.3368 18.1905 17.0299 18.13 16.703 18.13C15.6913 18.13 14.843 18.9603 14.8124 19.9503C14.8123 21.1001 13.8721 21.9999 12.6971 22.0001H11.3065C10.1212 22 9.18162 21.1001 9.18152 19.9503C9.16108 18.9603 8.3124 18.13 7.30066 18.13C6.96344 18.13 6.65672 18.1905 6.40125 18.3605C6.0743 18.5603 5.66558 18.6603 5.31824 18.6603C4.58244 18.6603 3.87703 18.2602 3.4989 17.6202L2.79382 16.42C2.41578 15.7701 2.3953 14.9902 2.77332 14.3702C2.93678 14.0703 3.24335 13.7702 3.5907 13.5802C3.8768 13.4402 4.06152 13.2105 4.23523 12.9406C4.74621 12.0806 4.43885 10.9506 3.57019 10.4406C2.55863 9.87057 2.23205 8.6004 2.81433 7.61047L3.4989 6.42981C4.09164 5.44 5.35887 5.09024 6.38074 5.67004C7.26973 6.14999 8.42488 5.83036 8.94617 4.98059C9.10968 4.70059 9.20196 4.39973 9.18152 4.09973C9.16117 3.70987 9.27354 3.34007 9.46765 3.04016C9.84579 2.42024 10.5303 2.02012 11.2762 2.00012H12.7167ZM12.0116 9.17981C10.4074 9.18 9.10938 10.4401 9.10925 12.0099C9.10925 13.5798 10.4073 14.83 12.0116 14.8302C13.6161 14.8302 14.8837 13.5799 14.8837 12.0099C14.8835 10.44 13.616 9.17981 12.0116 9.17981Z" fill="black"/>
</svg>
