<svg width="24" height="24" viewBox="0 0 24 24" fill="none" xmlns="http://www.w3.org/2000/svg">
<path d="M11.3408 2.10645C11.7333 1.96733 12.1708 1.96445 12.5703 2.09961L19.208 4.32617C19.951 4.57426 20.454 5.25759 20.458 6.02246L20.5 12.6631C20.513 14.6761 19.7785 16.6286 18.4346 18.1582C17.8165 18.8602 17.0243 19.4637 16.0127 20.0029L12.4453 21.9102C12.3337 21.9689 12.2106 21.999 12.0869 22C11.9633 22.001 11.8391 21.9718 11.7285 21.9141L8.12695 20.0508C7.10411 19.5203 6.30484 18.9257 5.68066 18.2334C4.31454 16.7194 3.55509 14.7759 3.54199 12.7598L3.5 6.12402C3.49597 5.35817 3.98957 4.67098 4.72852 4.41309L11.3408 2.10645ZM15.7451 9.21875C15.4481 8.9334 14.9697 8.93535 14.6768 9.22461L11.3086 12.5449L9.92871 11.2188C9.63171 10.9336 9.15423 10.9364 8.86035 11.2256C8.5674 11.5149 8.57118 11.9803 8.86816 12.2656L10.7832 14.1094C10.9322 14.2525 11.126 14.3223 11.3193 14.3203C11.5124 14.3193 11.7047 14.2474 11.8516 14.1025L15.751 10.2578C16.0437 9.96859 16.0408 9.50406 15.7451 9.21875Z" fill="black"/>
</svg>
