<svg width="24" height="24" viewBox="0 0 24 24" fill="none" xmlns="http://www.w3.org/2000/svg">
<path fill-rule="evenodd" clip-rule="evenodd" d="M11.3411 2.10362C11.7335 1.96546 12.1662 1.96546 12.5686 2.10362L19.2014 4.32921C19.9462 4.57436 20.4495 5.26161 20.4495 6.02647L20.5003 12.6642C20.5103 14.6742 19.7756 16.6257 18.427 18.1564C17.8131 18.8624 17.0175 19.4608 16.011 20.0001L12.4378 21.9122C12.3273 21.9709 12.2067 22 12.0862 22.0001C11.9654 22.0001 11.8336 21.9711 11.7229 21.9122L8.12039 20.0489C7.10389 19.5194 6.30885 18.9307 5.68484 18.2345C4.31602 16.7244 3.55037 14.773 3.54031 12.7628L3.50027 6.12315C3.49026 5.35833 3.99409 4.67302 4.72878 4.4171L11.3411 2.10362ZM14.4212 9.35948C14.1293 9.07511 13.6457 9.07511 13.3538 9.35948L11.9954 10.6837L10.636 9.35948C10.3441 9.07518 9.87153 9.07513 9.5696 9.35948C9.27781 9.65464 9.27777 10.1152 9.5696 10.3995L10.928 11.7228L9.5696 13.047C9.27772 13.3314 9.27772 13.8026 9.5696 14.087C9.72051 14.2339 9.91171 14.3018 10.1028 14.3019C10.3039 14.3019 10.4951 14.2339 10.636 14.087L11.9954 12.7628L13.3538 14.087C13.5047 14.2339 13.6959 14.3018 13.887 14.3019C14.0782 14.3019 14.2803 14.2341 14.4212 14.087C14.713 13.8027 14.713 13.3313 14.4212 13.047L13.0618 11.7228L14.4212 10.3995C14.7127 10.1152 14.7126 9.65456 14.4212 9.35948Z" fill="black"/>
</svg>
