<svg width="24" height="24" viewBox="0 0 24 24" fill="none" xmlns="http://www.w3.org/2000/svg">
<path d="M19.5312 9.82617C20.066 9.82617 20.5 10.2542 20.5 10.7832C20.4998 15.0868 17.2 18.6408 12.9688 19.1182V21.043C12.9688 21.571 12.5347 22 12 22C11.4645 21.9997 11.0322 21.5709 11.0322 21.043V19.1182C6.80002 18.6408 3.50017 15.0868 3.5 10.7832C3.5 10.2542 3.93402 9.82617 4.46875 9.82617C5.00347 9.82619 5.4375 10.2542 5.4375 10.7832C5.43769 14.3558 8.38121 17.2624 12 17.2627C15.618 17.2627 18.5623 14.356 18.5625 10.7832C18.5625 10.2542 18.9965 9.82619 19.5312 9.82617ZM12.1748 2C14.5781 2.00003 16.5272 3.92364 16.5273 6.29688V10.9199C16.5273 13.2923 14.5782 15.2177 12.1748 15.2178H11.8252C9.42181 15.2178 7.47363 13.2923 7.47363 10.9199V6.29688C7.47374 3.92363 9.42187 2 11.8252 2H12.1748Z" fill="black"/>
</svg>
