<svg width="24" height="24" viewBox="0 0 24 24" fill="none" xmlns="http://www.w3.org/2000/svg">
<path fill-rule="evenodd" clip-rule="evenodd" d="M10.7572 3.00001C11.8005 3.00001 12.7741 3.75152 13.1254 4.95606C13.2543 5.45944 13.3065 5.96399 13.3568 6.4502L13.4047 6.89259C13.585 8.36879 13.585 15.6215 13.4047 17.1084L13.3568 17.5664C13.3117 18.0291 13.2654 18.5085 13.1322 19.0195C12.7808 20.2207 11.8448 21 10.7816 21C10.7482 21 10.7147 21.0001 10.6771 20.999C10.0899 20.999 9.45099 20.6378 9.08922 20.3232L5.56286 17.3828H3.75231C2.35465 17.3828 1.33061 16.3709 1.14489 14.8047C0.930973 13.2383 0.972917 10.5506 1.14489 9.12696C1.34729 7.64436 2.41957 6.6172 3.75231 6.6172H5.56286L9.02184 3.71973C9.43908 3.35694 10.1753 2.99803 10.7572 3.00001ZM19.2904 3.22071C19.7076 2.92485 20.2805 3.03343 20.5668 3.45704C22.1355 5.76635 23.0004 8.80175 23.0004 12C23.0003 15.2004 22.1355 18.2347 20.5668 20.544C20.3958 20.796 20.1136 20.9473 19.8129 20.9473C19.6265 20.9472 19.4464 20.8895 19.2914 20.7803C18.8763 20.483 18.7731 19.8978 19.0599 19.4727C20.4168 17.4736 21.1654 14.8193 21.1654 12C21.1654 9.18181 20.4168 6.52737 19.0599 4.52833C18.773 4.1043 18.8764 3.51798 19.2904 3.22071ZM16.1283 6.2588C16.5466 5.96362 17.1182 6.06924 17.4066 6.49415C18.4195 7.98645 18.9789 9.94192 18.9789 12C18.9789 14.0581 18.4196 16.0136 17.4066 17.5059C17.2346 17.758 16.9535 17.9092 16.6527 17.9092C16.466 17.9092 16.2845 17.8507 16.1293 17.7412C15.7142 17.4438 15.6115 16.8576 15.8998 16.4336C16.7018 15.2516 17.1429 13.6768 17.1429 12C17.1429 10.3221 16.7018 8.74841 15.8998 7.56641C15.6115 7.14241 15.7143 6.55623 16.1283 6.2588Z" fill="black"/>
</svg>
